<svg xmlns="http://www.w3.org/2000/svg" width="1320" height="732" viewBox="0 0 1320 732" role="img" aria-labelledby="title desc">
  <title id="title">NSearcher vs ripgrep vs grep vs ugrep benchmark comparison</title>
  <desc id="desc">Grouped horizontal bar chart comparing NSearcher, ripgrep, grep and ugrep median execution times by scenario.</desc>
  <rect width="1320" height="732" fill="#f7f4ee" />
  <text x="40" y="52" font-family="Segoe UI, Arial, sans-serif" font-size="30" font-weight="700" fill="#1d3124">NSearcher vs ripgrep vs grep vs ugrep</text>
  <text x="40" y="82" font-family="Segoe UI, Arial, sans-serif" font-size="16" fill="#496154">Median wall-clock time by scenario. Lower is better.</text>
  <line x1="310.0" y1="106" x2="310.0" y2="678" stroke="#d4cec3" stroke-width="1" />
  <text x="310.0" y="98" text-anchor="middle" font-family="Segoe UI, Arial, sans-serif" font-size="13" fill="#6d766f">0.0 ms</text>
  <line x1="535.0" y1="106" x2="535.0" y2="678" stroke="#d4cec3" stroke-width="1" />
  <text x="535.0" y="98" text-anchor="middle" font-family="Segoe UI, Arial, sans-serif" font-size="13" fill="#6d766f">251.4 ms</text>
  <line x1="760.0" y1="106" x2="760.0" y2="678" stroke="#d4cec3" stroke-width="1" />
  <text x="760.0" y="98" text-anchor="middle" font-family="Segoe UI, Arial, sans-serif" font-size="13" fill="#6d766f">502.9 ms</text>
  <line x1="985.0" y1="106" x2="985.0" y2="678" stroke="#d4cec3" stroke-width="1" />
  <text x="985.0" y="98" text-anchor="middle" font-family="Segoe UI, Arial, sans-serif" font-size="13" fill="#6d766f">754.3 ms</text>
  <line x1="1210.0" y1="106" x2="1210.0" y2="678" stroke="#d4cec3" stroke-width="1" />
  <text x="1210.0" y="98" text-anchor="middle" font-family="Segoe UI, Arial, sans-serif" font-size="13" fill="#6d766f">1005.7 ms</text>
  <text x="40" y="142" font-family="Segoe UI, Arial, sans-serif" font-size="18" font-weight="600" fill="#223229">literal-huge-presence</text>
  <text x="40" y="169" font-family="Segoe UI, Arial, sans-serif" font-size="14" fill="#0b5d3a">NSearcher</text>
  <rect x="310" y="156" width="56.4" height="18" rx="6" fill="#1f8f63" />
  <text x="378.4" y="169" font-family="Segoe UI, Arial, sans-serif" font-size="14" fill="#20543b">63.1 ms</text>
  <text x="40" y="199" font-family="Segoe UI, Arial, sans-serif" font-size="14" fill="#6b7280">ripgrep</text>
  <rect x="310" y="186" width="193.7" height="18" rx="6" fill="#9aa3b2" />
  <text x="515.7" y="199" font-family="Segoe UI, Arial, sans-serif" font-size="14" fill="#384152">216.5 ms</text>
  <text x="40" y="229" font-family="Segoe UI, Arial, sans-serif" font-size="14" fill="#8a5e16">grep</text>
  <rect x="310" y="216" width="900.0" height="18" rx="6" fill="#c8892c" />
  <text x="1222.0" y="229" font-family="Segoe UI, Arial, sans-serif" font-size="14" fill="#7a4f0a">1005.7 ms</text>
  <text x="40" y="259" font-family="Segoe UI, Arial, sans-serif" font-size="14" fill="#4e3aa0">ugrep</text>
  <rect x="310" y="246" width="192.2" height="18" rx="6" fill="#7c63c9" />
  <text x="514.2" y="259" font-family="Segoe UI, Arial, sans-serif" font-size="14" fill="#43308a">214.7 ms</text>
  <text x="40" y="246" font-family="Segoe UI, Arial, sans-serif" font-size="14" fill="#4b5c52">Fastest: NSearcher by 70.6% vs ugrep</text>
  <text x="40" y="278" font-family="Segoe UI, Arial, sans-serif" font-size="18" font-weight="600" fill="#223229">literal-count-lines</text>
  <text x="40" y="305" font-family="Segoe UI, Arial, sans-serif" font-size="14" fill="#0b5d3a">NSearcher</text>
  <rect x="310" y="292" width="21.0" height="18" rx="6" fill="#1f8f63" />
  <text x="343.0" y="305" font-family="Segoe UI, Arial, sans-serif" font-size="14" fill="#20543b">23.5 ms</text>
  <text x="40" y="335" font-family="Segoe UI, Arial, sans-serif" font-size="14" fill="#6b7280">ripgrep</text>
  <rect x="310" y="322" width="20.3" height="18" rx="6" fill="#9aa3b2" />
  <text x="342.3" y="335" font-family="Segoe UI, Arial, sans-serif" font-size="14" fill="#384152">22.6 ms</text>
  <text x="40" y="365" font-family="Segoe UI, Arial, sans-serif" font-size="14" fill="#8a5e16">grep</text>
  <rect x="310" y="352" width="86.4" height="18" rx="6" fill="#c8892c" />
  <text x="408.4" y="365" font-family="Segoe UI, Arial, sans-serif" font-size="14" fill="#7a4f0a">96.6 ms</text>
  <text x="40" y="395" font-family="Segoe UI, Arial, sans-serif" font-size="14" fill="#4e3aa0">ugrep</text>
  <rect x="310" y="382" width="18.1" height="18" rx="6" fill="#7c63c9" />
  <text x="340.1" y="395" font-family="Segoe UI, Arial, sans-serif" font-size="14" fill="#43308a">20.2 ms</text>
  <text x="40" y="382" font-family="Segoe UI, Arial, sans-serif" font-size="14" fill="#4b5c52">Fastest: ugrep by 10.7% vs ripgrep</text>
  <text x="40" y="414" font-family="Segoe UI, Arial, sans-serif" font-size="18" font-weight="600" fill="#223229">literal-many-small-files</text>
  <text x="40" y="441" font-family="Segoe UI, Arial, sans-serif" font-size="14" fill="#0b5d3a">NSearcher</text>
  <rect x="310" y="428" width="26.3" height="18" rx="6" fill="#1f8f63" />
  <text x="348.3" y="441" font-family="Segoe UI, Arial, sans-serif" font-size="14" fill="#20543b">29.4 ms</text>
  <text x="40" y="471" font-family="Segoe UI, Arial, sans-serif" font-size="14" fill="#6b7280">ripgrep</text>
  <rect x="310" y="458" width="30.2" height="18" rx="6" fill="#9aa3b2" />
  <text x="352.2" y="471" font-family="Segoe UI, Arial, sans-serif" font-size="14" fill="#384152">33.7 ms</text>
  <text x="40" y="501" font-family="Segoe UI, Arial, sans-serif" font-size="14" fill="#8a5e16">grep</text>
  <rect x="310" y="488" width="116.1" height="18" rx="6" fill="#c8892c" />
  <text x="438.1" y="501" font-family="Segoe UI, Arial, sans-serif" font-size="14" fill="#7a4f0a">129.7 ms</text>
  <text x="40" y="531" font-family="Segoe UI, Arial, sans-serif" font-size="14" fill="#4e3aa0">ugrep</text>
  <rect x="310" y="518" width="24.5" height="18" rx="6" fill="#7c63c9" />
  <text x="346.5" y="531" font-family="Segoe UI, Arial, sans-serif" font-size="14" fill="#43308a">27.4 ms</text>
  <text x="40" y="518" font-family="Segoe UI, Arial, sans-serif" font-size="14" fill="#4b5c52">Fastest: ugrep by 6.8% vs NSearcher</text>
  <text x="40" y="550" font-family="Segoe UI, Arial, sans-serif" font-size="18" font-weight="600" fill="#223229">regex-log-count</text>
  <text x="40" y="577" font-family="Segoe UI, Arial, sans-serif" font-size="14" fill="#0b5d3a">NSearcher</text>
  <rect x="310" y="564" width="17.8" height="18" rx="6" fill="#1f8f63" />
  <text x="339.8" y="577" font-family="Segoe UI, Arial, sans-serif" font-size="14" fill="#20543b">19.9 ms</text>
  <text x="40" y="607" font-family="Segoe UI, Arial, sans-serif" font-size="14" fill="#6b7280">ripgrep</text>
  <rect x="310" y="594" width="20.2" height="18" rx="6" fill="#9aa3b2" />
  <text x="342.2" y="607" font-family="Segoe UI, Arial, sans-serif" font-size="14" fill="#384152">22.6 ms</text>
  <text x="40" y="637" font-family="Segoe UI, Arial, sans-serif" font-size="14" fill="#8a5e16">grep</text>
  <rect x="310" y="624" width="48.3" height="18" rx="6" fill="#c8892c" />
  <text x="370.3" y="637" font-family="Segoe UI, Arial, sans-serif" font-size="14" fill="#7a4f0a">53.9 ms</text>
  <text x="40" y="667" font-family="Segoe UI, Arial, sans-serif" font-size="14" fill="#4e3aa0">ugrep</text>
  <rect x="310" y="654" width="16.3" height="18" rx="6" fill="#7c63c9" />
  <text x="338.3" y="667" font-family="Segoe UI, Arial, sans-serif" font-size="14" fill="#43308a">18.2 ms</text>
  <text x="40" y="654" font-family="Segoe UI, Arial, sans-serif" font-size="14" fill="#4b5c52">Fastest: ugrep by 8.4% vs NSearcher</text>
</svg>
